<svg width="71" height="77" viewBox="0 0 71 77" fill="none" xmlns="http://www.w3.org/2000/svg">
<path d="M7.96839 71C13.2866 71 16.44 67.7102 16.44 62.2557C16.44 56.8182 13.2866 53.5455 8.08771 53.5455H2.05362V71H7.96839ZM5.21555 68.2642V56.2812H7.90874C11.4542 56.2812 13.3036 58.2585 13.3036 62.2557C13.3036 66.2699 11.4542 68.2642 7.81499 68.2642H5.21555ZM25.0181 71.2557C28.8533 71.2557 31.2908 68.554 31.2908 64.5057C31.2908 60.4489 28.8533 57.7386 25.0181 57.7386C21.1829 57.7386 18.7454 60.4489 18.7454 64.5057C18.7454 68.554 21.1829 71.2557 25.0181 71.2557ZM25.0352 68.7841C22.913 68.7841 21.8732 66.892 21.8732 64.4972C21.8732 62.1023 22.913 60.1847 25.0352 60.1847C27.1232 60.1847 28.163 62.1023 28.163 64.4972C28.163 66.892 27.1232 68.7841 25.0352 68.7841ZM36.9947 63.3295C36.9947 61.4375 38.1367 60.3466 39.7646 60.3466C41.3583 60.3466 42.3129 61.3949 42.3129 63.142V71H45.3981V62.6648C45.4066 59.5284 43.6168 57.7386 40.9151 57.7386C38.9549 57.7386 37.6083 58.6761 37.0117 60.1335H36.8583V57.9091H33.9094V71H36.9947V63.3295ZM56.8782 65.4943C56.8782 67.4886 55.4549 68.4773 54.0913 68.4773C52.6083 68.4773 51.6197 67.429 51.6197 65.767V57.9091H48.5344V66.2443C48.5344 69.3892 50.3242 71.1705 52.8981 71.1705C54.8583 71.1705 56.239 70.1392 56.8356 68.6733H56.9719V71H59.9634V57.9091H56.8782V65.4943ZM69.6729 57.9091H67.0906V54.7727H64.0053V57.9091H62.1474V60.2955H64.0053V67.5739C63.9883 70.0369 65.7781 71.2472 68.0962 71.179C68.9741 71.1534 69.5792 70.983 69.9116 70.8722L69.3917 68.4602C69.2212 68.5028 68.8718 68.5795 68.4883 68.5795C67.7127 68.5795 67.0906 68.3068 67.0906 67.0625V60.2955H69.6729V57.9091Z" fill="white"/>
<circle cx="36" cy="20" r="15" stroke="#97A6FF" stroke-width="10"/>
</svg>
