<svg width="267" height="314" viewBox="0 0 267 314" fill="none" xmlns="http://www.w3.org/2000/svg">
<rect x="111.721" y="36.4404" width="69" height="204" transform="rotate(15 111.721 36.4404)" fill="#697EF5"/>
<path d="M41.6835 62.1363L111.721 36.4403L58.9215 233.489L4.44623 201.108L41.6835 62.1363Z" fill="#91A6EB"/>
<rect x="112.185" y="165.482" width="83" height="153" rx="6" transform="rotate(-15 112.185 165.482)" fill="#AAB8DC"/>
<rect x="120.351" y="170.402" width="70" height="127" rx="4" transform="rotate(-15 120.351 170.402)" fill="#6B86CB"/>
<circle cx="189.765" cy="292.739" r="6" transform="rotate(-15 189.765 292.739)" fill="#6B86CB"/>
<path d="M210.685 77C210.685 77 212.013 85.8282 217.185 91.0002C222.357 96.1722 231.185 97.5 231.185 97.5C231.185 97.5 222.357 98.8278 217.185 104C212.013 109.172 210.685 118 210.685 118C210.685 118 209.357 109.172 204.185 104C199.013 98.8278 190.185 97.5 190.185 97.5C190.185 97.5 199.013 96.1722 204.185 91.0002C209.357 85.8282 210.685 77 210.685 77Z" fill="#FFE2E7"/>
<path d="M35.6848 0C35.6848 0 37.0126 8.82822 42.1846 14.0002C47.3566 19.1722 56.1848 20.5 56.1848 20.5C56.1848 20.5 47.3566 21.8278 42.1846 26.9998C37.0126 32.1718 35.6848 41 35.6848 41C35.6848 41 34.357 32.1718 29.185 26.9998C24.013 21.8278 15.1848 20.5 15.1848 20.5C15.1848 20.5 24.013 19.1722 29.185 14.0002C34.357 8.82822 35.6848 0 35.6848 0Z" fill="#FFE2E7"/>
<path d="M238.685 21C238.685 21 240.466 33.0581 247.404 40.1222C254.342 47.1864 266.185 49 266.185 49C266.185 49 254.342 50.8136 247.404 57.8778C240.466 64.9419 238.685 77 238.685 77C238.685 77 236.904 64.9419 229.966 57.8778C223.028 50.8136 211.185 49 211.185 49C211.185 49 223.028 47.1864 229.966 40.1222C236.904 33.0581 238.685 21 238.685 21Z" fill="#FFE2E7"/>
<path d="M73.6848 258C73.6848 258 75.466 270.058 82.404 277.122C89.3421 284.186 101.185 286 101.185 286C101.185 286 89.3421 287.814 82.404 294.878C75.466 301.942 73.6848 314 73.6848 314C73.6848 314 71.9036 301.942 64.9656 294.878C58.0275 287.814 46.1848 286 46.1848 286C46.1848 286 58.0275 284.186 64.9656 277.122C71.9036 270.058 73.6848 258 73.6848 258Z" fill="#FFE2E7"/>
</svg>
